<?xml version="1.0" encoding="UTF-8" standalone="no"?>
<!DOCTYPE svg PUBLIC "-//W3C//DTD SVG 1.1//EN" "http://www.w3.org/Graphics/SVG/1.1/DTD/svg11.dtd">
<svg xmlns="http://www.w3.org/2000/svg" version="1.1" viewBox="0.00 0.00 1448.00 1448.00">
<path fill="#00d8ff" d="
  M 1118.84 951.36
  C 1134.85 1018.38 1144.08 1086.70 1137.97 1154.93
  C 1132.13 1220.25 1107.90 1300.68 1037.08 1322.05
  C 990.36 1336.14 937.35 1321.39 894.27 1301.47
  C 855.38 1283.48 818.89 1259.31 784.97 1232.24
  Q 754.28 1207.76 725.61 1180.06
  Q 725.18 1179.65 724.76 1180.06
  Q 687.02 1216.70 644.73 1247.28
  C 614.02 1269.50 580.98 1289.19 546.23 1303.92
  C 505.15 1321.33 457.04 1333.69 412.74 1322.69
  C 349.19 1306.92 321.38 1245.12 311.88 1186.35
  C 305.59 1147.49 305.69 1106.92 309.62 1067.27
  C 313.36 1029.56 320.39 991.92 329.52 954.55
  Q 329.67 953.95 329.08 953.78
  C 282.09 940.29 236.10 922.51 193.25 899.61
  C 162.07 882.95 132.39 863.21 106.51 839.45
  C 76.30 811.72 48.64 774.48 45.07 732.21
  C 41.43 689.12 64.00 650.32 93.23 620.50
  C 117.14 596.12 145.99 575.89 176.33 559.00
  C 224.29 532.29 276.40 512.67 329.76 497.70
  A 0.62 0.62 0.0 0 0 330.20 496.96
  C 317.18 445.16 308.60 391.74 307.34 338.97
  C 306.37 298.22 309.82 257.46 322.24 219.59
  C 330.31 194.95 342.89 171.28 361.43 153.60
  C 398.91 117.86 451.78 117.16 499.25 129.93
  C 532.08 138.77 563.67 153.25 593.00 170.47
  C 640.15 198.16 683.28 232.60 723.02 270.54
  Q 723.45 270.94 723.87 270.54
  C 759.05 236.78 796.72 205.61 837.43 179.35
  C 868.35 159.40 901.96 142.13 936.72 131.38
  C 984.04 116.75 1038.12 114.28 1077.67 148.73
  C 1111.88 178.53 1127.35 226.81 1133.58 270.95
  C 1140.38 319.08 1138.30 369.31 1131.40 418.21
  Q 1125.71 458.47 1115.99 497.77
  Q 1115.85 498.33 1116.40 498.49
  C 1176.85 516.22 1235.66 539.15 1288.96 572.46
  C 1317.34 590.20 1343.48 610.75 1364.67 636.11
  C 1382.51 657.45 1396.36 682.95 1399.68 710.69
  C 1407.54 776.38 1352.62 831.96 1303.51 866.20
  C 1270.38 889.30 1233.98 908.03 1196.42 923.45
  Q 1158.67 938.95 1119.29 950.57
  Q 1118.69 950.75 1118.84 951.36
  Z
  M 1069.90 436.66
  C 1078.42 388.93 1082.53 340.06 1077.87 292.93
  Q 1075.02 264.07 1067.20 239.73
  C 1061.10 220.75 1050.32 198.57 1032.94 187.69
  C 1009.24 172.84 973.43 179.95 947.49 188.82
  C 909.77 201.71 874.00 222.91 841.29 246.88
  Q 802.00 275.68 764.43 312.01
  A 0.42 0.41 46.5 0 0 764.42 312.59
  Q 825.52 379.39 877.94 454.56
  A 1.57 1.55 -14.5 0 0 879.07 455.22
  Q 970.95 463.60 1059.40 483.64
  Q 1059.94 483.76 1060.07 483.23
  Q 1065.48 461.41 1069.90 436.66
  Z
  M 387.05 483.04
  C 446.62 469.72 506.48 460.68 567.07 455.04
  Q 567.71 454.98 568.09 454.46
  Q 621.02 379.29 682.62 312.48
  Q 682.84 312.23 682.60 312.00
  C 648.60 279.48 611.39 249.52 571.25 224.91
  C 542.05 207.01 510.05 191.75 476.96 184.18
  C 457.06 179.63 433.99 177.89 415.46 186.08
  C 387.88 198.26 375.50 237.27 370.43 264.88
  C 364.12 299.24 363.93 335.62 367.06 370.92
  Q 371.92 425.73 386.44 482.66
  Q 386.57 483.15 387.05 483.04
  Z
  M 643.63 449.75
  C 696.59 447.37 749.47 447.35 802.61 449.81
  A 0.22 0.22 0.0 0 0 802.79 449.46
  Q 765.79 399.89 723.89 354.07
  A 0.54 0.53 -44.7 0 0 723.10 354.07
  Q 681.49 399.16 643.45 449.42
  A 0.21 0.21 0.0 0 0 643.63 449.75
  Z
  M 801.95 940.93
  Q 827.24 939.86 846.64 938.30
  Q 847.14 938.26 847.42 937.84
  Q 907.30 847.78 955.83 752.91
  Q 962.91 739.08 970.08 724.17
  Q 970.31 723.71 970.08 723.24
  Q 915.09 612.61 846.81 511.03
  Q 846.43 510.47 845.75 510.42
  Q 723.09 501.19 600.02 510.46
  Q 599.51 510.50 599.22 510.92
  Q 529.48 613.12 476.17 723.90
  A 1.33 1.33 0.0 0 0 476.17 725.06
  Q 530.03 836.52 599.77 938.42
  Q 600.06 938.84 600.56 938.87
  Q 700.82 945.23 801.95 940.93
  Z
  M 524.38 518.07
  Q 462.79 525.72 402.61 538.91
  A 0.51 0.51 0.0 0 0 402.23 539.56
  Q 420.60 598.30 444.95 655.86
  Q 445.23 656.51 445.55 655.88
  Q 482.38 584.79 524.76 518.67
  Q 525.21 517.97 524.38 518.07
  Z
  M 921.34 518.06
  Q 920.50 517.95 920.96 518.66
  C 949.19 563.05 975.88 609.18 1000.57 656.01
  Q 1000.89 656.63 1001.16 655.99
  Q 1025.83 598.45 1044.27 540.06
  Q 1044.44 539.52 1043.88 539.39
  Q 982.74 525.70 921.34 518.06
  Z
  M 102.86 725.24
  C 103.47 739.17 109.95 753.21 117.90 764.95
  C 134.31 789.21 157.79 809.26 182.67 825.97
  Q 207.18 842.43 234.16 855.69
  Q 286.46 881.39 344.57 897.97
  Q 345.09 898.12 345.25 897.60
  Q 372.66 809.61 411.64 725.47
  Q 412.01 724.67 411.64 723.87
  Q 372.94 640.36 345.84 553.50
  A 0.24 0.24 0.0 0 0 345.55 553.34
  C 296.91 566.90 249.26 584.88 205.27 609.31
  C 175.55 625.81 147.02 646.03 125.64 671.56
  C 113.08 686.55 102.02 705.98 102.86 725.24
  Z
  M 1342.66 725.91
  C 1344.64 695.97 1316.98 666.19 1295.33 648.04
  Q 1273.54 629.77 1246.67 614.16
  C 1201.63 587.99 1152.02 568.69 1100.98 554.12
  Q 1100.45 553.97 1100.29 554.49
  Q 1073.02 640.67 1034.58 722.72
  Q 1034.28 723.37 1034.59 724.01
  Q 1074.95 807.97 1102.94 894.69
  Q 1103.06 895.06 1103.43 894.95
  C 1146.94 881.97 1189.36 865.46 1229.00 844.10
  C 1259.46 827.69 1288.27 808.13 1311.92 783.38
  C 1326.68 767.93 1341.27 747.01 1342.66 725.91
  Z
  M 921.13 931.20
  C 962.93 926.31 1005.00 919.35 1046.43 909.87
  Q 1047.13 909.72 1046.91 909.04
  Q 1027.46 849.06 1001.69 790.86
  A 0.24 0.24 0.0 0 0 1001.26 790.84
  Q 964.02 862.44 920.85 930.76
  A 0.29 0.29 0.0 0 0 921.13 931.20
  Z
  M 409.86 914.13
  Q 467.30 926.02 525.77 932.32
  A 0.18 0.18 0.0 0 0 525.94 932.04
  Q 482.48 864.41 445.44 793.12
  Q 445.22 792.68 445.03 793.14
  Q 420.43 851.21 401.35 911.82
  A 0.44 0.43 15.5 0 0 401.67 912.37
  Q 405.56 913.24 409.86 914.13
  Z
  M 1008.54 1268.84
  Q 1035.10 1266.23 1051.01 1244.22
  C 1066.69 1222.54 1074.66 1194.65 1078.57 1167.99
  Q 1084.40 1128.20 1081.61 1083.93
  Q 1077.85 1024.34 1062.91 965.62
  A 0.16 0.15 -11.7 0 0 1062.73 965.51
  Q 973.04 985.64 880.18 993.58
  A 1.71 1.68 14.5 0 0 878.93 994.30
  C 844.54 1044.23 807.06 1092.58 765.99 1137.66
  Q 765.62 1138.07 766.01 1138.46
  Q 796.07 1167.65 829.48 1193.48
  C 860.29 1217.30 893.90 1238.66 929.76 1253.61
  C 954.60 1263.95 982.23 1271.43 1008.54 1268.84
  Z
  M 567.43 994.48
  C 506.77 989.70 446.09 981.34 386.20 968.28
  Q 385.64 968.16 385.50 968.71
  Q 376.86 1002.81 371.20 1039.79
  C 364.51 1083.46 362.05 1128.36 368.10 1171.23
  C 371.72 1196.79 378.84 1222.80 393.63 1243.58
  Q 408.91 1265.06 434.97 1268.12
  C 456.71 1270.67 478.61 1266.64 499.99 1259.73
  C 538.32 1247.32 574.92 1226.39 608.16 1202.52
  Q 648.33 1173.66 684.32 1138.85
  Q 684.63 1138.55 684.34 1138.23
  Q 622.25 1071.10 568.68 995.20
  A 1.72 1.71 74.8 0 0 567.43 994.48
  Z
  M 804.13 998.72
  C 759.67 1000.69 714.96 1001.08 672.49 999.92
  Q 658.17 999.53 644.33 999.11
  Q 643.57 999.09 644.03 999.69
  Q 682.14 1050.05 724.90 1096.54
  Q 725.16 1096.82 725.41 1096.54
  Q 766.90 1050.57 804.44 999.27
  Q 804.87 998.68 804.13 998.72
  Z"
/>
<circle fill="#00d8ff" cx="722.79" cy="723.03" r="121.14"/>
</svg>
